<svg width="224" height="75" viewBox="0 0 224 75" fill="none" xmlns="http://www.w3.org/2000/svg">
<path d="M222.91 37.3697C193.97 12.0979 171.16 -6.521 131.755 4.03737C112.946 9.07701 100.75 23.5112 100.419 43.5183C99.8179 79.9262 152.816 55.1645 139.185 29.5213C114.196 -17.4882 51.2894 11.0358 26.1481 41.7609C18.8206 50.7141 10.6531 61.0359 4.4076 70.6484C-1.00951 78.9863 2.62633 67.4711 3.35173 63.7122C4.69335 56.747 3.99859 50.1407 5.31013 43.3324C7.60623 31.4194 6.60467 42.9702 5.25513 48.3619C1.38294 63.8276 -5.4867 76.3087 15.4141 71.309C19.6197 70.3026 41.5239 66.881 38.9904 64.9919C31.8068 59.6356 26.1653 49.6117 19.201 45.0256C9.66865 38.7481 6.19526 32.2206 15.559 46.4026C18.6136 51.0295 22.0314 54.8733 25.22 59.2559C30.4752 66.4787 21.8653 58.1936 21.4246 57.0646C20.1424 53.7842 14.1288 49.1169 18.8143 55.5575C20.0206 57.2157 25.8672 63.1092 23.7132 61.8656C16.9112 57.9385 11.884 45.9782 11.6595 52.0594C11.4719 57.1706 13.8097 59.3286 18.21 61.5353C19.7084 62.2869 27.3935 61.1435 24.946 59.7304" stroke="black" stroke-width="1.5" stroke-linecap="round" stroke-dasharray="1.54 1.54"/>
</svg>
