<svg xmlns:xlink="http://www.w3.org/1999/xlink" class="d-none d-md-block ingredients__arrow" width="443" height="454" viewBox="0 0 443 454" fill="none" xmlns="http://www.w3.org/2000/svg" data-v-0350f3df=""><mask id="maskarrowtext_ingredients" data-v-0350f3df="" fill="none"><path class="mask-path" stroke-dashoffset="835" stroke-dasharray="835, 850" data-duration="1.4" d="M359.477 453.019C359.488 453.324 359.743 453.562 360.048 453.551L365.011 453.376C365.315 453.365 365.554 453.11 365.543 452.805C365.532 452.501 365.277 452.262 364.972 452.273L360.56 452.429L360.405 448.017C360.394 447.712 360.138 447.474 359.834 447.485C359.529 447.496 359.291 447.751 359.302 448.056L359.477 453.019ZM1.13069 19.0358C201.979 -29.9272 338.641 28.0524 401.572 123.362C464.513 218.687 453.828 351.533 359.625 452.623L360.432 453.376C454.944 351.955 465.745 218.551 402.493 122.754C339.23 26.9416 202.021 -31.0734 0.869309 17.9636L1.13069 19.0358Z" data-v-0350f3df="" style="stroke-dashoffset: 834.9; stroke-dasharray: 835px, 792.741px;" stroke="#FFFFFF" fill="none" stroke-width="5px"></path></mask><path mask="url(#maskarrowtext_ingredients)" d="M359.477 453.019C359.488 453.324 359.743 453.562 360.048 453.551L365.011 453.376C365.315 453.365 365.554 453.11 365.543 452.805C365.532 452.501 365.277 452.262 364.972 452.273L360.56 452.429L360.405 448.017C360.394 447.712 360.138 447.474 359.834 447.485C359.529 447.496 359.291 447.751 359.302 448.056L359.477 453.019ZM1.13069 19.0358C201.979 -29.9272 338.641 28.0524 401.572 123.362C464.513 218.687 453.828 351.533 359.625 452.623L360.432 453.376C454.944 351.955 465.745 218.551 402.493 122.754C339.23 26.9416 202.021 -31.0734 0.869309 17.9636L1.13069 19.0358Z" fill="black" data-v-0350f3df=""></path></svg>