<svg width="826" height="725" viewBox="0 0 826 725" fill="none" xmlns="http://www.w3.org/2000/svg">
<path d="M575.441 10.3223C671.65 -10.8991 752.026 1.78649 794.373 53.042L795.366 54.2598C837.442 106.531 832.916 188.336 791.307 278.494C750.036 367.917 672.344 465.402 567.848 550.06L565.374 552.058C459.629 637.176 346.792 692.95 249.859 714.331C153.651 735.552 73.275 722.867 30.9277 671.611L29.9346 670.394C-12.1413 618.122 -7.61484 536.317 33.9951 446.159C75.2657 356.736 152.957 259.251 257.454 174.594L259.928 172.596C365.672 87.477 478.509 31.7033 575.441 10.3223Z" stroke="#63001F"/>
</svg>
