<?xml version="1.0" encoding="UTF-8"?>
<svg width="206" height="143" viewBox="0 0 206 143" fill="none" xmlns="http://www.w3.org/2000/svg">
  <path fill-rule="evenodd" clip-rule="evenodd" d="M82.4536 97.9153V40.5946C102.803 50.1698 118.563 59.4196 137.202 69.3921C121.829 77.9181 102.803 87.4845 82.4536 97.9153ZM195.858 12.0864C192.348 7.46178 186.366 3.86191 179.996 2.6701C161.275 -0.884977 44.4825 -0.895089 25.7716 2.6701C20.664 3.62759 16.1159 5.94198 12.2089 9.53781C-4.25342 24.8174 0.905084 106.757 4.87314 120.03C6.54174 125.775 8.69882 129.918 11.4154 132.638C14.9154 136.234 19.7075 138.709 25.2119 139.82C40.6263 143.008 120.038 144.791 179.671 140.299C185.165 139.341 190.028 136.785 193.864 133.037C209.085 117.818 208.047 31.2775 195.858 12.0864Z" fill="#63001f"/>
</svg>